<?xml version="1.0" encoding="UTF-8" ?>
<!DOCTYPE svg PUBLIC "-//W3C//DTD SVG 1.1//EN" "http://www.w3.org/Graphics/SVG/1.1/DTD/svg11.dtd">
<svg width="325pt" height="260pt" viewBox="0 0 325 260" version="1.1" xmlns="http://www.w3.org/2000/svg">
<g id="#53c363ff">
<path fill="#53c363" opacity="1.00" d=" M 133.82 90.52 C 136.71 82.23 139.43 73.88 142.42 65.63 C 145.03 74.00 147.56 82.39 150.18 90.76 C 158.89 91.02 167.62 90.79 176.33 91.32 C 170.94 95.10 165.55 98.87 160.17 102.67 C 162.46 101.90 164.75 101.12 167.04 100.35 C 179.62 105.04 191.30 111.84 202.40 119.34 C 195.92 123.95 188.81 127.82 180.99 129.57 C 174.75 125.92 168.38 122.14 161.24 120.55 C 160.10 118.90 158.98 117.23 157.82 115.59 C 159.36 120.87 161.09 126.10 162.61 131.39 C 156.02 126.26 148.88 121.78 142.79 116.07 C 135.33 108.97 128.31 100.74 126.09 90.39 C 128.66 90.50 131.24 90.51 133.82 90.52 Z" />
</g>
<g id="#ffffffff">
<path fill="#ffffff" opacity="1.00" d=" M 146.32 68.64 C 157.48 64.93 170.17 65.85 180.48 71.61 C 195.85 79.82 204.88 98.26 201.64 115.44 C 196.39 112.01 191.05 108.73 185.60 105.65 C 184.48 96.88 178.72 88.79 170.55 85.27 C 164.51 82.39 157.44 82.38 151.18 84.53 C 149.56 79.23 147.89 73.95 146.32 68.64 Z" />
<path fill="#ffffff" opacity="1.00" d=" M 93.96 180.07 C 98.53 166.37 116.70 158.35 129.39 166.11 C 127.18 168.67 124.96 171.21 122.82 173.83 C 114.74 168.18 102.77 176.70 104.02 186.06 C 104.22 189.49 107.61 192.15 110.95 192.04 C 114.87 192.08 118.57 190.64 122.14 189.19 C 119.54 193.16 116.95 197.48 112.67 199.85 C 106.63 202.65 98.52 200.71 94.91 194.96 C 92.03 190.57 92.18 184.86 93.96 180.07 Z" />
<path fill="#ffffff" opacity="1.00" d=" M 138.80 164.98 C 145.62 161.49 154.87 161.76 160.73 167.07 C 158.25 169.62 155.91 172.31 153.50 174.93 C 150.37 173.11 145.68 169.40 142.56 173.11 C 141.73 176.58 145.41 178.57 147.65 180.44 C 151.15 182.84 155.08 186.35 154.35 191.06 C 151.94 203.04 133.93 206.82 126.11 198.08 C 128.25 195.64 130.34 193.15 132.36 190.60 C 135.14 192.42 138.49 194.79 141.96 193.66 C 144.48 193.09 144.18 189.64 142.66 188.18 C 140.14 185.41 136.55 183.69 134.51 180.45 C 131.18 175.34 133.35 167.69 138.80 164.98 Z" />
<path fill="#ffffff" opacity="1.00" d=" M 166.20 166.18 C 173.13 164.72 180.20 164.17 187.17 162.95 C 185.86 165.71 184.65 168.52 183.51 171.35 C 180.03 171.92 176.54 172.36 173.02 172.58 C 172.62 174.24 172.21 175.90 171.80 177.57 C 173.63 177.54 175.46 177.51 177.29 177.40 C 179.08 177.04 180.90 176.99 182.72 176.89 C 181.56 179.36 180.46 181.85 179.36 184.35 C 176.17 184.85 172.96 185.12 169.77 185.56 C 169.36 187.26 168.95 188.95 168.56 190.66 C 173.64 190.04 178.78 190.25 183.83 189.45 C 182.44 192.25 181.19 195.12 179.89 197.97 C 172.61 198.78 165.25 199.02 158.15 201.03 C 161.01 189.46 163.56 177.80 166.20 166.18 Z" />
<path fill="#ffffff" opacity="1.00" d=" M 210.56 163.64 C 216.46 162.23 223.40 162.87 228.01 167.15 C 232.20 171.15 232.61 177.56 231.32 182.90 C 228.69 193.27 218.71 200.54 208.39 201.92 C 202.82 202.34 196.63 201.49 192.30 197.67 C 188.58 194.31 187.56 188.85 188.71 184.11 C 191.27 173.81 200.31 165.83 210.56 163.64 M 208.52 175.57 C 205.72 176.45 202.92 177.83 201.13 180.23 C 198.55 183.37 198.17 188.72 201.64 191.38 C 207.69 195.39 216.57 191.65 219.01 185.08 C 220.00 182.47 220.68 178.86 218.30 176.78 C 215.63 174.49 211.70 174.61 208.52 175.57 Z" />
</g>
<g id="#fdfefeff">
<path fill="#fdfefe" opacity="1.00" d=" M 123.54 87.48 C 126.85 81.93 131.34 77.10 136.68 73.45 C 135.07 78.14 133.57 82.87 131.83 87.53 C 129.07 87.50 126.30 87.50 123.54 87.48 Z" />
<path fill="#fdfefe" opacity="1.00" d=" M 124.57 131.09 C 129.08 127.86 133.64 124.70 138.18 121.51 C 142.08 127.82 148.62 132.45 155.98 133.63 C 162.65 134.99 169.50 132.87 175.10 129.25 C 180.11 132.13 184.93 135.30 189.68 138.58 C 183.31 144.34 175.55 148.74 166.97 149.97 C 150.72 152.81 133.34 145.04 124.57 131.09 Z" />
</g>
<g id="#57bf59ff">
<path fill="#57bf59" opacity="1.00" d=" M 107.41 90.02 C 113.63 90.47 119.87 90.05 126.09 90.39 C 128.31 100.74 135.33 108.97 142.79 116.07 C 141.56 116.18 140.34 116.48 139.36 117.25 C 132.93 121.76 126.57 126.37 120.06 130.76 C 122.90 122.48 125.70 114.19 128.57 105.92 C 121.51 100.62 114.43 95.36 107.41 90.02 Z" />
</g>
<g id="#fcfcfdff">
<path fill="#fcfcfd" opacity="1.00" d=" M 118.52 101.85 C 120.78 103.51 123.01 105.20 125.26 106.87 C 123.55 111.77 121.96 116.72 120.17 121.59 C 118.00 115.26 117.58 108.44 118.52 101.85 Z" />
</g>
<g id="#5eb84fff">
<path fill="#5eb84f" opacity="1.00" d=" M 180.99 129.57 C 188.81 127.82 195.92 123.95 202.40 119.34 C 208.57 124.07 216.16 128.24 219.34 135.70 C 214.28 140.04 209.15 144.29 204.07 148.61 C 198.62 140.03 189.30 134.99 180.99 129.57 Z" />
</g>
<g id="#5dba53ff">
<path fill="#5dba53" opacity="1.00" d=" M 186.33 143.93 C 188.20 142.60 190.04 141.23 191.88 139.85 C 195.61 142.68 199.14 145.78 202.40 149.16 C 196.63 148.97 191.34 146.56 186.33 143.93 Z" />
</g>
</svg>
